# xmcd
#
# Track frame offsets: 
#        150
#        14920
#        31240
#        48540
#        63980
#        75277
#        88575
#        101662
#        118552
#        129662
#
# Disc length: 1928 seconds
#
# Revision: 2
# Processed by: cddbd v1.5.1PL0 Copyright (c) Steve Scherf et al.
# Submitted via: ExactAudioCopy v0.95a5
#
DISCID=7d07860a
DTITLE=Various Artist - NASCAR Hotter Than Asphalt
DYEAR=1996
DGENRE=Country
TTITLE0=Lynyrd Skynyrd - White Knuckle Ride
TTITLE1=Mark Collie - Love To Burn
TTITLE2=Joe Diffie - Tearin' It Up
TTITLE3=Waylon Jennings - I Can Run With The Big Dogs
TTITLE4=Alabama - Sunday Drive
TTITLE5=Tracy Lawrence - One Foot On The Peddle
TTITLE6=Tanya Tucker - Going Nowhere And Gettin' There Fast
TTITLE7=Little Texas - You Gotta Wanna Win
TTITLE8=Hank Williams Jr. - Down In Huey  Town
TTITLE9=Lynyrd Skynyrd - Save Up - Killer Beaz
EXTD=
EXTT0=
EXTT1=
EXTT2=
EXTT3=
EXTT4=
EXTT5=
EXTT6=
EXTT7=
EXTT8=
EXTT9=
PLAYORDER=
